<svg version="1.1" id="Layer_1" xmlns="http://www.w3.org/2000/svg" xmlns:xlink="http://www.w3.org/1999/xlink" x="0px" y="0px"
	 width="100%" viewBox="0 0 170 161" enable-background="new 0 0 170 161" xml:space="preserve">
<path fill="#FFD230" opacity="1.000000" stroke="none" 
	d="
M100.000000,162.000000 
	C66.666672,162.000000 33.833340,162.000000 1.000009,162.000000 
	C1.000006,108.333344 1.000006,54.666687 1.000003,1.000023 
	C57.666653,1.000015 114.333305,1.000015 170.999969,1.000008 
	C170.999969,54.666641 170.999969,108.333282 170.999985,161.999969 
	C147.500000,162.000000 124.000000,162.000000 100.000000,162.000000 
M23.408148,28.143208 
	C21.882187,29.772133 19.608967,31.157187 18.981647,33.079388 
	C17.557737,37.442451 16.167473,42.062870 16.127014,46.590847 
	C15.875439,74.746109 15.979291,102.904755 16.008053,131.062225 
	C16.025118,147.768631 25.315262,156.979965 42.138172,156.993713 
	C69.962440,157.016464 97.786743,157.011673 125.611023,156.995636 
	C142.756714,156.985748 151.980835,147.838776 151.994049,130.813217 
	C152.015656,102.988945 152.043121,75.164490 151.945007,47.340553 
	C151.932816,43.881531 151.637146,40.283257 150.639160,37.003159 
	C149.367172,32.822456 148.220184,28.110893 142.236801,26.669802 
	C139.331070,22.465031 135.280350,20.942789 130.237976,20.957767 
	C100.999496,21.044626 71.758736,21.180763 42.523212,20.874123 
	C35.130035,20.796576 28.758692,21.793022 23.408148,28.143208 
z"/>
<path fill="#FFFFFF" opacity="1.000000" stroke="none" 
	d="
M24.115181,28.040667 
	C28.758692,21.793022 35.130035,20.796576 42.523212,20.874123 
	C71.758736,21.180763 100.999496,21.044626 130.237976,20.957767 
	C135.280350,20.942789 139.331070,22.465031 142.552917,27.276320 
	C143.301392,30.256004 143.733734,32.629173 144.101257,35.466930 
	C144.023621,65.974930 144.046478,96.018471 143.941666,126.061562 
	C143.931442,128.991409 143.133911,131.918488 142.446533,135.030243 
	C141.089279,136.698502 139.987305,138.183365 138.466705,139.714462 
	C135.121216,140.173950 132.195648,140.935913 129.267273,140.946976 
	C96.844879,141.069290 64.422043,141.075150 31.688871,140.969376 
	C29.350264,139.165207 27.322113,137.504150 25.264584,135.423874 
	C24.824114,131.735245 24.071182,128.467499 24.055239,125.196167 
	C23.908722,95.132118 23.889904,65.067451 23.899601,34.571472 
	C24.015270,32.106880 24.065228,30.073774 24.115181,28.040667 
M108.828804,91.503571 
	C109.678497,82.316856 110.528191,73.130142 111.423256,63.452873 
	C107.058571,63.452873 103.307632,63.452873 99.273445,63.452873 
	C99.098846,59.964943 98.945488,56.901279 98.775528,53.505928 
	C97.025940,53.596230 95.632996,53.668121 93.878372,53.758682 
	C93.878372,57.069458 93.878372,60.005581 93.878372,63.430584 
	C89.766464,63.430584 86.027267,63.430584 82.249886,63.430584 
	C81.464256,67.342216 81.997261,69.523804 85.963676,70.957169 
	C94.855179,74.170357 99.265175,80.869606 99.146492,90.449188 
	C99.073074,96.374794 99.132881,102.302048 99.132881,108.172523 
	C106.195541,108.592545 107.073212,107.910217 107.747635,101.811005 
	C108.094032,98.678337 108.347214,95.535347 108.828804,91.503571 
M63.266655,76.652000 
	C59.268078,79.406502 56.497356,82.828659 56.843159,88.292953 
	C69.258148,88.292953 81.454269,88.292953 95.101028,88.292953 
	C93.192123,84.710876 92.195908,81.516777 90.157585,79.266731 
	C84.217018,72.709114 74.372307,71.770622 63.266655,76.652000 
M58.249725,98.637070 
	C70.098175,98.637070 81.946625,98.637070 94.148598,98.637070 
	C93.977173,96.463150 93.867188,95.068375 93.729797,93.326118 
	C81.967354,93.326118 70.545609,93.190002 59.130104,93.397255 
	C54.927807,93.473557 55.960052,96.086624 58.249725,98.637070 
M62.744995,103.316406 
	C60.692631,103.419540 58.640266,103.522675 56.587902,103.625809 
	C56.340805,104.148827 56.093708,104.671844 55.846607,105.194862 
	C57.204620,106.350220 58.537930,108.471092 59.924599,108.506577 
	C70.052887,108.765732 80.192665,108.668159 90.327034,108.541481 
	C93.421951,108.502800 94.957436,106.992432 93.438820,103.316597 
	C83.591164,103.316597 73.639244,103.316597 62.744995,103.316406 
z"/>
<path fill="#FCD030" opacity="1.000000" stroke="none" 
	d="
M23.761665,28.091938 
	C24.065228,30.073774 24.015270,32.106880 23.565258,34.691078 
	C22.115122,38.622787 20.182722,41.995880 20.153811,45.385208 
	C19.911051,73.845467 19.827499,102.310577 20.110626,130.770111 
	C20.226044,142.371552 26.129944,149.675598 35.796459,151.665909 
	C39.034721,152.332672 42.370174,152.922119 45.656517,152.898407 
	C72.922844,152.701630 100.189522,152.444336 127.453049,152.012924 
	C141.956619,151.783447 147.629196,142.755325 147.821960,131.056808 
	C148.293610,102.435814 148.105942,73.800545 147.812592,45.174831 
	C147.777710,41.771900 145.437622,38.392597 144.166092,35.002342 
	C143.733734,32.629173 143.301392,30.256004 142.809616,27.485176 
	C148.220184,28.110893 149.367172,32.822456 150.639160,37.003159 
	C151.637146,40.283257 151.932816,43.881531 151.945007,47.340553 
	C152.043121,75.164490 152.015656,102.988945 151.994049,130.813217 
	C151.980835,147.838776 142.756714,156.985748 125.611023,156.995636 
	C97.786743,157.011673 69.962440,157.016464 42.138172,156.993713 
	C25.315262,156.979965 16.025118,147.768631 16.008053,131.062225 
	C15.979291,102.904755 15.875439,74.746109 16.127014,46.590847 
	C16.167473,42.062870 17.557737,37.442451 18.981647,33.079388 
	C19.608967,31.157187 21.882187,29.772133 23.761665,28.091938 
z"/>
<path fill="#F8CC2F" opacity="1.000000" stroke="none" 
	d="
M144.101257,35.466930 
	C145.437622,38.392597 147.777710,41.771900 147.812592,45.174831 
	C148.105942,73.800545 148.293610,102.435814 147.821960,131.056808 
	C147.629196,142.755325 141.956619,151.783447 127.453049,152.012924 
	C100.189522,152.444336 72.922844,152.701630 45.656517,152.898407 
	C42.370174,152.922119 39.034721,152.332672 35.796459,151.665909 
	C26.129944,149.675598 20.226044,142.371552 20.110626,130.770111 
	C19.827499,102.310577 19.911051,73.845467 20.153811,45.385208 
	C20.182722,41.995880 22.115122,38.622787 23.499544,35.122566 
	C23.889904,65.067451 23.908722,95.132118 24.055239,125.196167 
	C24.071182,128.467499 24.824114,131.735245 25.028383,135.671417 
	C24.304735,140.499466 25.454348,144.243530 29.409000,145.821274 
	C33.404320,147.415253 37.801979,148.821030 42.037041,148.860962 
	C69.957001,149.124237 97.880791,149.041946 125.803009,148.962219 
	C132.239120,148.943848 138.039673,146.822968 141.816925,141.377579 
	C142.932236,139.769699 142.451279,137.054581 142.701843,134.846863 
	C143.133911,131.918488 143.931442,128.991409 143.941666,126.061562 
	C144.046478,96.018471 144.023621,65.974930 144.101257,35.466930 
z"/>
<path fill="#12E179" opacity="1.000000" stroke="none" 
	d="
M108.735664,91.950302 
	C108.347214,95.535347 108.094032,98.678337 107.747635,101.811005 
	C107.073212,107.910217 106.195541,108.592545 99.132881,108.172523 
	C99.132881,102.302048 99.073074,96.374794 99.146492,90.449188 
	C99.265175,80.869606 94.855179,74.170357 85.963676,70.957169 
	C81.997261,69.523804 81.464256,67.342216 82.249886,63.430584 
	C86.027267,63.430584 89.766464,63.430584 93.878372,63.430584 
	C93.878372,60.005581 93.878372,57.069458 93.878372,53.758682 
	C95.632996,53.668121 97.025940,53.596230 98.775528,53.505928 
	C98.945488,56.901279 99.098846,59.964943 99.273445,63.452873 
	C103.307632,63.452873 107.058571,63.452873 111.423256,63.452873 
	C110.528191,73.130142 109.678497,82.316856 108.735664,91.950302 
z"/>
<path fill="#F3C82E" opacity="1.000000" stroke="none" 
	d="
M142.446533,135.030243 
	C142.451279,137.054581 142.932236,139.769699 141.816925,141.377579 
	C138.039673,146.822968 132.239120,148.943848 125.803009,148.962219 
	C97.880791,149.041946 69.957001,149.124237 42.037041,148.860962 
	C37.801979,148.821030 33.404320,147.415253 29.409000,145.821274 
	C25.454348,144.243530 24.304735,140.499466 25.057762,136.090637 
	C27.322113,137.504150 29.350264,139.165207 31.774212,141.320251 
	C35.124458,142.875748 38.071739,144.835907 41.034458,144.859512 
	C70.015900,145.090546 98.999969,145.020660 127.983116,144.956024 
	C130.279022,144.950912 132.780075,144.798492 134.804230,143.876694 
	C136.460037,143.122620 137.546463,141.118271 138.885330,139.668213 
	C139.987305,138.183365 141.089279,136.698502 142.446533,135.030243 
z"/>
<path fill="#15E17B" opacity="1.000000" stroke="none" 
	d="
M63.574409,76.439224 
	C74.372307,71.770622 84.217018,72.709114 90.157585,79.266731 
	C92.195908,81.516777 93.192123,84.710876 95.101028,88.292953 
	C81.454269,88.292953 69.258148,88.292953 56.843159,88.292953 
	C56.497356,82.828659 59.268078,79.406502 63.574409,76.439224 
z"/>
<path fill="#E4BB2B" opacity="1.000000" stroke="none" 
	d="
M138.466705,139.714462 
	C137.546463,141.118271 136.460037,143.122620 134.804230,143.876694 
	C132.780075,144.798492 130.279022,144.950912 127.983116,144.956024 
	C98.999969,145.020660 70.015900,145.090546 41.034458,144.859512 
	C38.071739,144.835907 35.124458,142.875748 32.084671,141.463348 
	C64.422043,141.075150 96.844879,141.069290 129.267273,140.946976 
	C132.195648,140.935913 135.121216,140.173950 138.466705,139.714462 
z"/>
<path fill="#30E58B" opacity="1.000000" stroke="none" 
	d="
M57.837845,98.556320 
	C55.960052,96.086624 54.927807,93.473557 59.130104,93.397255 
	C70.545609,93.190002 81.967354,93.326118 93.729797,93.326118 
	C93.867188,95.068375 93.977173,96.463150 94.148598,98.637070 
	C81.946625,98.637070 70.098175,98.637070 57.837845,98.556320 
z"/>
<path fill="#30E58B" opacity="1.000000" stroke="none" 
	d="
M63.216156,103.316498 
	C73.639244,103.316597 83.591164,103.316597 93.438820,103.316597 
	C94.957436,106.992432 93.421951,108.502800 90.327034,108.541481 
	C80.192665,108.668159 70.052887,108.765732 59.924599,108.506577 
	C58.537930,108.471092 57.204620,106.350220 55.846607,105.194862 
	C56.093708,104.671844 56.340805,104.148827 56.587902,103.625809 
	C58.640266,103.522675 60.692631,103.419540 63.216156,103.316498 
z"/>
</svg>